<svg width="1200" height="800" xmlns="http://www.w3.org/2000/svg">
  <defs>
    <style>
      .title { font-family: Arial, sans-serif; font-size: 24px; font-weight: bold; fill: #1a1a2e; }
      .level1 { font-family: Arial, sans-serif; font-size: 16px; font-weight: bold; fill: #16213e; }
      .level2 { font-family: Arial, sans-serif; font-size: 14px; fill: #0f3460; }
      .level3 { font-family: Arial, sans-serif; font-size: 12px; fill: #666; }
      .box { fill: #f8f9fa; stroke: #1a1a2e; stroke-width: 2; rx: 8; }
      .box-level1 { fill: #e3f2fd; stroke: #16213e; stroke-width: 2; rx: 6; }
      .box-level2 { fill: #f3e5f5; stroke: #0f3460; stroke-width: 1; rx: 4; }
      .box-level3 { fill: #fff3e0; stroke: #999; stroke-width: 1; rx: 3; }
      .line { stroke: #666; stroke-width: 2; fill: none; }
    </style>
  </defs>
  
  <!-- 标题 -->
  <text x="600" y="30" text-anchor="middle" class="title">The Echo of HAMMER - 站点地图</text>
  
  <!-- 首页 -->
  <rect x="500" y="60" width="200" height="50" class="box"/>
  <text x="600" y="85" text-anchor="middle" class="level1">首页 (start.html)</text>
  
  <!-- 主要分支 -->
  <!-- 登录系统 -->
  <line x1="550" y1="110" x2="550" y2="140" class="line"/>
  <line x1="200" y1="140" x2="1000" y2="140" class="line"/>
  
  <line x1="200" y1="140" x2="200" y2="170" class="line"/>
  <rect x="100" y="170" width="200" height="40" class="box-level1"/>
  <text x="200" y="195" text-anchor="middle" class="level1">登录系统</text>
  
  <!-- 登录子项 -->
  <line x1="200" y1="210" x2="200" y2="230" class="line"/>
  <line x1="80" y1="230" x2="320" y2="230" class="line"/>
  
  <line x1="80" y1="230" x2="80" y2="250" class="line"/>
  <rect x="20" y="250" width="120" height="30" class="box-level2"/>
  <text x="80" y="270" text-anchor="middle" class="level2">注册页面</text>
  
  <line x1="160" y1="230" x2="160" y2="250" class="line"/>
  <rect x="100" y="250" width="120" height="30" class="box-level2"/>
  <text x="160" y="270" text-anchor="middle" class="level2">找回密码</text>
  
  <line x1="240" y1="230" x2="240" y2="250" class="line"/>
  <rect x="180" y="250" width="120" height="30" class="box-level2"/>
  <text x="240" y="270" text-anchor="middle" class="level2">用户验证</text>
  
  <!-- 游戏主体 -->
  <line x1="450" y1="140" x2="450" y2="170" class="line"/>
  <rect x="350" y="170" width="200" height="40" class="box-level1"/>
  <text x="450" y="195" text-anchor="middle" class="level1">游戏主体 (game.html)</text>
  
  <!-- 游戏主体子项 -->
  <line x1="450" y1="210" x2="450" y2="230" class="line"/>
  <line x1="300" y1="230" x2="600" y2="230" class="line"/>
  
  <!-- 游戏世界 -->
  <line x1="320" y1="230" x2="320" y2="250" class="line"/>
  <rect x="250" y="250" width="140" height="30" class="box-level2"/>
  <text x="320" y="270" text-anchor="middle" class="level2">游戏世界</text>
  
  <line x1="320" y1="280" x2="320" y2="300" class="line"/>
  <line x1="200" y1="300" x2="440" y2="300" class="line"/>
  
  <line x1="200" y1="300" x2="200" y2="320" class="line"/>
  <rect x="140" y="320" width="120" height="25" class="box-level3"/>
  <text x="200" y="337" text-anchor="middle" class="level3">客厅场景</text>
  
  <line x1="260" y1="300" x2="260" y2="320" class="line"/>
  <rect x="200" y="320" width="120" height="25" class="box-level3"/>
  <text x="260" y="337" text-anchor="middle" class="level3">卧室场景</text>
  
  <line x1="320" y1="300" x2="320" y2="320" class="line"/>
  <rect x="260" y="320" width="120" height="25" class="box-level3"/>
  <text x="320" y="337" text-anchor="middle" class="level3">厨房场景</text>
  
  <line x1="380" y1="300" x2="380" y2="320" class="line"/>
  <rect x="320" y="320" width="120" height="25" class="box-level3"/>
  <text x="380" y="337" text-anchor="middle" class="level3">公寓走廊</text>
  
  <!-- 游戏界面 -->
  <line x1="450" y1="230" x2="450" y2="250" class="line"/>
  <rect x="380" y="250" width="140" height="30" class="box-level2"/>
  <text x="450" y="270" text-anchor="middle" class="level2">游戏界面</text>
  
  <line x1="450" y1="280" x2="450" y2="300" class="line"/>
  <line x1="350" y1="300" x2="550" y2="300" class="line"/>
  
  <line x1="350" y1="300" x2="350" y2="320" class="line"/>
  <rect x="290" y="320" width="120" height="25" class="box-level3"/>
  <text x="350" y="337" text-anchor="middle" class="level3">主视图</text>
  
  <line x1="410" y1="300" x2="410" y2="320" class="line"/>
  <rect x="350" y="320" width="120" height="25" class="box-level3"/>
  <text x="410" y="337" text-anchor="middle" class="level3">对话框</text>
  
  <line x1="470" y1="300" x2="470" y2="320" class="line"/>
  <rect x="410" y="320" width="120" height="25" class="box-level3"/>
  <text x="470" y="337" text-anchor="middle" class="level3">暂停菜单</text>
  
  <line x1="530" y1="300" x2="530" y2="320" class="line"/>
  <rect x="470" y="320" width="120" height="25" class="box-level3"/>
  <text x="530" y="337" text-anchor="middle" class="level3">HUD界面</text>
  
  <!-- 游戏系统 -->
  <line x1="580" y1="230" x2="580" y2="250" class="line"/>
  <rect x="510" y="250" width="140" height="30" class="box-level2"/>
  <text x="580" y="270" text-anchor="middle" class="level2">游戏系统</text>
  
  <line x1="580" y1="280" x2="580" y2="300" class="line"/>
  <line x1="480" y1="300" x2="680" y2="300" class="line"/>
  
  <line x1="480" y1="300" x2="480" y2="320" class="line"/>
  <rect x="420" y="320" width="120" height="25" class="box-level3"/>
  <text x="480" y="337" text-anchor="middle" class="level3">存档管理</text>
  
  <line x1="540" y1="300" x2="540" y2="320" class="line"/>
  <rect x="480" y="320" width="120" height="25" class="box-level3"/>
  <text x="540" y="337" text-anchor="middle" class="level3">成就系统</text>
  
  <line x1="600" y1="300" x2="600" y2="320" class="line"/>
  <rect x="540" y="320" width="120" height="25" class="box-level3"/>
  <text x="600" y="337" text-anchor="middle" class="level3">证据收集</text>
  
  <line x1="660" y1="300" x2="660" y2="320" class="line"/>
  <rect x="600" y="320" width="120" height="25" class="box-level3"/>
  <text x="660" y="337" text-anchor="middle" class="level3">提示系统</text>
  
  <!-- 功能页面 -->
  <line x1="700" y1="140" x2="700" y2="170" class="line"/>
  <rect x="600" y="170" width="200" height="40" class="box-level1"/>
  <text x="700" y="195" text-anchor="middle" class="level1">功能页面</text>
  
  <line x1="700" y1="210" x2="700" y2="230" class="line"/>
  <line x1="580" y1="230" x2="820" y2="230" class="line"/>
  
  <line x1="580" y1="230" x2="580" y2="250" class="line"/>
  <rect x="520" y="250" width="120" height="25" class="box-level2"/>
  <text x="580" y="267" text-anchor="middle" class="level2">个人主页</text>
  
  <line x1="640" y1="230" x2="640" y2="250" class="line"/>
  <rect x="580" y="250" width="120" height="25" class="box-level2"/>
  <text x="640" y="267" text-anchor="middle" class="level2">成就展示</text>
  
  <line x1="700" y1="230" x2="700" y2="250" class="line"/>
  <rect x="640" y="250" width="120" height="25" class="box-level2"/>
  <text x="700" y="267" text-anchor="middle" class="level2">游戏介绍</text>
  
  <line x1="760" y1="230" x2="760" y2="250" class="line"/>
  <rect x="700" y="250" width="120" height="25" class="box-level2"/>
  <text x="760" y="267" text-anchor="middle" class="level2">操作帮助</text>
  
  <line x1="820" y1="230" x2="820" y2="250" class="line"/>
  <rect x="760" y="250" width="120" height="25" class="box-level2"/>
  <text x="820" y="267" text-anchor="middle" class="level2">设置选项</text>
  
  <!-- 小游戏模块 -->
  <line x1="850" y1="140" x2="850" y2="170" class="line"/>
  <rect x="750" y="170" width="200" height="40" class="box-level1"/>
  <text x="850" y="195" text-anchor="middle" class="level1">小游戏模块</text>
  
  <line x1="850" y1="210" x2="850" y2="230" class="line"/>
  <line x1="750" y1="230" x2="950" y2="230" class="line"/>
  
  <line x1="750" y1="230" x2="750" y2="250" class="line"/>
  <rect x="690" y="250" width="120" height="25" class="box-level2"/>
  <text x="750" y="267" text-anchor="middle" class="level2">T-Rex跑酷</text>
  
  <line x1="850" y1="230" x2="850" y2="250" class="line"/>
  <rect x="790" y="250" width="120" height="25" class="box-level2"/>
  <text x="850" y="267" text-anchor="middle" class="level2">解谜小游戏</text>
  
  <line x1="950" y1="230" x2="950" y2="250" class="line"/>
  <rect x="890" y="250" width="120" height="25" class="box-level2"/>
  <text x="950" y="267" text-anchor="middle" class="level2">反应测试</text>
  
  <!-- 开发工具 -->
  <line x1="1000" y1="140" x2="1000" y2="170" class="line"/>
  <rect x="900" y="170" width="200" height="40" class="box-level1"/>
  <text x="1000" y="195" text-anchor="middle" class="level1">开发工具</text>
  
  <line x1="1000" y1="210" x2="1000" y2="230" class="line"/>
  <line x1="900" y1="230" x2="1100" y2="230" class="line"/>
  
  <line x1="900" y1="230" x2="900" y2="250" class="line"/>
  <rect x="840" y="250" width="120" height="25" class="box-level2"/>
  <text x="900" y="267" text-anchor="middle" class="level2">墙体编辑器</text>
  
  <line x1="1000" y1="230" x2="1000" y2="250" class="line"/>
  <rect x="940" y="250" width="120" height="25" class="box-level2"/>
  <text x="1000" y="267" text-anchor="middle" class="level2">坐标调试器</text>
  
  <line x1="1100" y1="230" x2="1100" y2="250" class="line"/>
  <rect x="1040" y="250" width="120" height="25" class="box-level2"/>
  <text x="1100" y="267" text-anchor="middle" class="level2">性能监控</text>
  
  <!-- 图例 -->
  <text x="50" y="400" class="level1">图例：</text>
  <rect x="50" y="420" width="80" height="25" class="box"/>
  <text x="90" y="437" text-anchor="middle" class="level2">主要页面</text>
  
  <rect x="150" y="420" width="80" height="25" class="box-level1"/>
  <text x="190" y="437" text-anchor="middle" class="level2">功能模块</text>
  
  <rect x="250" y="420" width="80" height="25" class="box-level2"/>
  <text x="290" y="437" text-anchor="middle" class="level2">子功能</text>
  
  <rect x="350" y="420" width="80" height="25" class="box-level3"/>
  <text x="390" y="437" text-anchor="middle" class="level2">具体页面</text>
  
  <!-- 统计信息 -->
  <text x="50" y="480" class="level1">统计信息：</text>
  <text x="50" y="500" class="level2">• 主要页面：13个</text>
  <text x="50" y="520" class="level2">• 功能模块：6个</text>
  <text x="50" y="540" class="level2">• 子功能：25个</text>
  <text x="50" y="560" class="level2">• 总体复杂度：中高级</text>
  
</svg>