<svg width="1600" height="2400" xmlns="http://www.w3.org/2000/svg">
  <defs>
    <style>
      .title { font-family: Arial, sans-serif; font-size: 24px; font-weight: bold; fill: #1a1a2e; }
      .section-title { font-family: Arial, sans-serif; font-size: 18px; font-weight: bold; fill: #16213e; }
      .subtitle { font-family: Arial, sans-serif; font-size: 14px; font-weight: bold; fill: #0f3460; }
      .text { font-family: Arial, sans-serif; font-size: 12px; fill: #333; }
      .label { font-family: Arial, sans-serif; font-size: 10px; fill: #666; }
      .code { font-family: 'Courier New', monospace; font-size: 10px; fill: #444; }
    </style>
  </defs>
  
  <!-- 标题 -->
  <text x="800" y="30" text-anchor="middle" class="title">The Echo of HAMMER - 设计规范文档</text>
  
  <!-- 1. 颜色设计方案 -->
  <text x="50" y="80" class="section-title">1. 颜色设计方案</text>
  
  <!-- 主色调 -->
  <text x="50" y="110" class="subtitle">1.1 主色调（悬疑风格）</text>
  
  <!-- 主色 -->
  <rect x="50" y="130" width="80" height="60" fill="#1a1a2e" stroke="#333" stroke-width="1"/>
  <text x="90" y="170" text-anchor="middle" fill="white" class="text">主色</text>
  <text x="140" y="145" class="text">#1a1a2e</text>
  <text x="140" y="160" class="label">深蓝紫色 - 神秘感</text>
  <text x="140" y="175" class="label">用于：主要背景、标题</text>
  
  <!-- 辅色 -->
  <rect x="280" y="130" width="80" height="60" fill="#16213e" stroke="#333" stroke-width="1"/>
  <text x="320" y="170" text-anchor="middle" fill="white" class="text">辅色</text>
  <text x="370" y="145" class="text">#16213e</text>
  <text x="370" y="160" class="label">深蓝色 - 夜晚氛围</text>
  <text x="370" y="175" class="label">用于：次要背景、卡片</text>
  
  <!-- 强调色 -->
  <rect x="510" y="130" width="80" height="60" fill="#e94560" stroke="#333" stroke-width="1"/>
  <text x="550" y="170" text-anchor="middle" fill="white" class="text">强调色</text>
  <text x="600" y="145" class="text">#e94560</text>
  <text x="600" y="160" class="label">红色 - 危险/重要提示</text>
  <text x="600" y="175" class="label">用于：警告、重要按钮</text>
  
  <!-- 中性色 -->
  <rect x="740" y="130" width="80" height="60" fill="#0f3460" stroke="#333" stroke-width="1"/>
  <text x="780" y="170" text-anchor="middle" fill="white" class="text">中性色</text>
  <text x="830" y="145" class="text">#0f3460</text>
  <text x="830" y="160" class="label">中蓝色 - 界面背景</text>
  <text x="830" y="175" class="label">用于：容器、边框</text>
  
  <!-- 功能色彩 -->
  <text x="50" y="230" class="subtitle">1.2 功能色彩</text>
  
  <rect x="50" y="250" width="60" height="40" fill="#27ae60" stroke="#333" stroke-width="1"/>
  <text x="80" y="275" text-anchor="middle" fill="white" class="label">成功</text>
  <text x="120" y="265" class="text">#27ae60</text>
  <text x="120" y="280" class="label">完成/正确</text>
  
  <rect x="220" y="250" width="60" height="40" fill="#f39c12" stroke="#333" stroke-width="1"/>
  <text x="250" y="275" text-anchor="middle" fill="white" class="label">警告</text>
  <text x="290" y="265" class="text">#f39c12</text>
  <text x="290" y="280" class="label">注意/提示</text>
  
  <rect x="390" y="250" width="60" height="40" fill="#e74c3c" stroke="#333" stroke-width="1"/>
  <text x="420" y="275" text-anchor="middle" fill="white" class="label">错误</text>
  <text x="460" y="265" class="text">#e74c3c</text>
  <text x="460" y="280" class="label">错误/危险</text>
  
  <rect x="560" y="250" width="60" height="40" fill="#3498db" stroke="#333" stroke-width="1"/>
  <text x="590" y="275" text-anchor="middle" fill="white" class="label">信息</text>
  <text x="630" y="265" class="text">#3498db</text>
  <text x="630" y="280" class="label">信息/链接</text>
  
  <!-- 文本色彩 -->
  <text x="50" y="330" class="subtitle">1.3 文本色彩</text>
  
  <rect x="50" y="350" width="60" height="30" fill="#ffffff" stroke="#333" stroke-width="1"/>
  <text x="80" y="370" text-anchor="middle" class="label">主文本</text>
  <text x="120" y="365" class="text">#ffffff - 主要内容</text>
  
  <rect x="280" y="350" width="60" height="30" fill="#bdc3c7" stroke="#333" stroke-width="1"/>
  <text x="310" y="370" text-anchor="middle" class="label">次文本</text>
  <text x="350" y="365" class="text">#bdc3c7 - 辅助信息</text>
  
  <rect x="510" y="350" width="60" height="30" fill="#7f8c8d" stroke="#333" stroke-width="1"/>
  <text x="540" y="370" text-anchor="middle" fill="white" class="label">禁用</text>
  <text x="580" y="365" class="text">#7f8c8d - 不可用状态</text>
  
  <!-- 2. 字体设计方案 -->
  <text x="50" y="430" class="section-title">2. 字体设计方案</text>
  
  <!-- 字体族 -->
  <text x="50" y="460" class="subtitle">2.1 字体族</text>
  <text x="50" y="480" class="text">主字体：'Microsoft YaHei', 'PingFang SC', sans-serif</text>
  <text x="50" y="500" class="text">英文字体：'Roboto', 'Arial', sans-serif</text>
  <text x="50" y="520" class="code">等宽字体：'Consolas', 'Monaco', monospace</text>
  
  <!-- 字体大小层级 -->
  <text x="50" y="560" class="subtitle">2.2 字体大小层级</text>
  
  <text x="50" y="590" style="font-size: 32px; font-weight: bold; fill: #1a1a2e;">标题1 - 32px</text>
  <text x="300" y="595" class="label">页面主标题</text>
  
  <text x="50" y="630" style="font-size: 24px; font-weight: bold; fill: #16213e;">标题2 - 24px</text>
  <text x="200" y="635" class="label">区块标题</text>
  
  <text x="50" y="660" style="font-size: 20px; font-weight: bold; fill: #0f3460;">标题3 - 20px</text>
  <text x="180" y="665" class="label">小节标题</text>
  
  <text x="50" y="685" style="font-size: 16px; fill: #333;">正文 - 16px</text>
  <text x="130" y="690" class="label">主要内容</text>
  
  <text x="50" y="705" style="font-size: 14px; fill: #666;">小字 - 14px</text>
  <text x="130" y="710" class="label">辅助信息</text>
  
  <text x="50" y="725" style="font-size: 12px; fill: #999;">微字 - 12px</text>
  <text x="130" y="730" class="label">版权等</text>
  
  <!-- 字重规范 -->
  <text x="400" y="560" class="subtitle">2.3 字重规范</text>
  <text x="400" y="590" style="font-weight: 700; font-size: 16px;">粗体 - 700</text>
  <text x="500" y="595" class="label">重要标题</text>
  <text x="400" y="615" style="font-weight: 500; font-size: 16px;">中等 - 500</text>
  <text x="500" y="620" class="label">次要标题</text>
  <text x="400" y="640" style="font-weight: 400; font-size: 16px;">常规 - 400</text>
  <text x="500" y="645" class="label">正文内容</text>
  <text x="400" y="665" style="font-weight: 300; font-size: 16px;">细体 - 300</text>
  <text x="500" y="670" class="label">辅助文字</text>
  
  <!-- 3. 图像设计规范 -->
  <text x="50" y="780" class="section-title">3. 图像设计规范</text>
  
  <!-- 像素艺术风格 -->
  <text x="50" y="810" class="subtitle">3.1 像素艺术风格</text>
  
  <!-- 像素网格示例 -->
  <g transform="translate(50, 830)">
    <!-- 16x16 网格 -->
    <rect x="0" y="0" width="64" height="64" fill="none" stroke="#ccc" stroke-width="1"/>
    <g stroke="#ddd" stroke-width="0.5">
      <line x1="16" y1="0" x2="16" y2="64"/>
      <line x1="32" y1="0" x2="32" y2="64"/>
      <line x1="48" y1="0" x2="48" y2="64"/>
      <line x1="0" y1="16" x2="64" y2="16"/>
      <line x1="0" y1="32" x2="64" y2="32"/>
      <line x1="0" y1="48" x2="64" y2="48"/>
    </g>
    <text x="32" y="80" text-anchor="middle" class="label">16x16 像素单位</text>
  </g>
  
  <g transform="translate(150, 830)">
    <!-- 32x32 网格 -->
    <rect x="0" y="0" width="64" height="64" fill="none" stroke="#ccc" stroke-width="1"/>
    <g stroke="#ddd" stroke-width="0.5">
      <line x1="32" y1="0" x2="32" y2="64"/>
      <line x1="0" y1="32" x2="64" y2="32"/>
    </g>
    <text x="32" y="80" text-anchor="middle" class="label">32x32 像素单位</text>
  </g>
  
  <text x="250" y="860" class="text">• 分辨率：16x16, 32x32, 64x64像素单位</text>
  <text x="250" y="880" class="text">• 调色板：限制在32色以内，保持复古感</text>
  <text x="250" y="900" class="text">• 抗锯齿：禁用抗锯齿，保持像素清晰</text>
  
  <!-- 角色设计 -->
  <text x="50" y="940" class="subtitle">3.2 角色设计</text>
  
  <!-- 简化的角色示例 -->
  <g transform="translate(50, 960)">
    <!-- 主角示例 -->
    <rect x="0" y="0" width="32" height="32" fill="#2c3e50" stroke="#1a1a2e"/>
    <rect x="8" y="4" width="16" height="8" fill="#f4d1ae"/>
    <rect x="4" y="12" width="24" height="16" fill="#34495e"/>
    <rect x="8" y="28" width="6" height="4" fill="#2c3e50"/>
    <rect x="18" y="28" width="6" height="4" fill="#2c3e50"/>
    <text x="16" y="45" text-anchor="middle" class="label">主角</text>
  </g>
  
  <text x="120" y="980" class="text">• 主角：侦探形象，深色风衣，经典造型</text>
  <text x="120" y="1000" class="text">• NPC：差异化设计，便于识别</text>
  <text x="120" y="1020" class="text">• 动画帧数：4帧行走动画，2帧待机动画</text>
  
  <!-- 场景设计 -->
  <text x="50" y="1060" class="subtitle">3.3 场景设计</text>
  <text x="50" y="1080" class="text">• 透视：3/4俯视角度</text>
  <text x="50" y="1100" class="text">• 光影：统一光源方向，营造氛围</text>
  <text x="50" y="1120" class="text">• 细节：丰富的环境细节，增强沉浸感</text>
  
  <!-- 4. 布局设计规范 -->
  <text x="50" y="1180" class="section-title">4. 布局设计规范</text>
  
  <!-- 网格系统 -->
  <text x="50" y="1210" class="subtitle">4.1 网格系统</text>
  
  <!-- 8px网格示例 -->
  <g transform="translate(50, 1230)">
    <rect x="0" y="0" width="200" height="80" fill="#f8f9fa" stroke="#ddd"/>
    <g stroke="#e0e0e0" stroke-width="0.5">
      <line x1="8" y1="0" x2="8" y2="80"/>
      <line x1="16" y1="0" x2="16" y2="80"/>
      <line x1="24" y1="0" x2="24" y2="80"/>
      <line x1="32" y1="0" x2="32" y2="80"/>
      <line x1="40" y1="0" x2="40" y2="80"/>
      <line x1="48" y1="0" x2="48" y2="80"/>
      <line x1="0" y1="8" x2="200" y2="8"/>
      <line x1="0" y1="16" x2="200" y2="16"/>
      <line x1="0" y1="24" x2="200" y2="24"/>
      <line x1="0" y1="32" x2="200" y2="32"/>
      <line x1="0" y1="40" x2="200" y2="40"/>
      <line x1="0" y1="48" x2="200" y2="48"/>
    </g>
    <text x="100" y="95" text-anchor="middle" class="label">8px 基础网格系统</text>
  </g>
  
  <text x="280" y="1250" class="text">• 基础单位：8px网格系统</text>
  <text x="280" y="1270" class="text">• 容器宽度：最大1200px，居中对齐</text>
  <text x="280" y="1290" class="text">• 间距规范：8px, 16px, 24px, 32px, 48px</text>
  
  <!-- 组件规范 -->
  <text x="50" y="1350" class="subtitle">4.2 组件规范</text>
  
  <!-- 按钮示例 -->
  <rect x="50" y="1370" width="120" height="44" fill="#3498db" stroke="#2980b9" rx="8"/>
  <text x="110" y="1397" text-anchor="middle" fill="white" class="text">按钮示例</text>
  <text x="180" y="1385" class="text">最小44px高度</text>
  <text x="180" y="1400" class="text">8px圆角</text>
  
  <!-- 输入框示例 -->
  <rect x="50" y="1430" width="200" height="40" fill="white" stroke="#bdc3c7" rx="4"/>
  <text x="60" y="1455" class="text">输入框示例</text>
  <text x="260" y="1445" class="text">40px高度</text>
  <text x="260" y="1460" class="text">4px圆角，1px边框</text>
  
  <!-- 卡片示例 -->
  <rect x="50" y="1490" width="180" height="80" fill="white" stroke="#e0e0e0" rx="8" filter="drop-shadow(0 2px 4px rgba(0,0,0,0.1))"/>
  <text x="140" y="1535" text-anchor="middle" class="text">卡片示例</text>
  <text x="240" y="1520" class="text">8px圆角</text>
  <text x="240" y="1535" class="text">0-4px阴影</text>
  
  <!-- 响应式断点 -->
  <text x="50" y="1610" class="subtitle">4.3 响应式断点</text>
  
  <!-- 移动端 -->
  <rect x="50" y="1630" width="200" height="40" fill="#e8f5e8" stroke="#4caf50"/>
  <text x="150" y="1655" text-anchor="middle" class="text">移动端 &lt; 768px</text>
  
  <!-- 平板端 -->
  <rect x="260" y="1630" width="200" height="40" fill="#fff3e0" stroke="#ff9800"/>
  <text x="360" y="1655" text-anchor="middle" class="text">平板端 768px - 1024px</text>
  
  <!-- 桌面端 -->
  <rect x="470" y="1630" width="200" height="40" fill="#e3f2fd" stroke="#2196f3"/>
  <text x="570" y="1655" text-anchor="middle" class="text">桌面端 &gt; 1024px</text>
  
  <!-- 5. 交互设计规范 -->
  <text x="50" y="1720" class="section-title">5. 交互设计规范</text>
  
  <!-- 动画效果 -->
  <text x="50" y="1750" class="subtitle">5.1 动画效果</text>
  <text x="50" y="1770" class="text">• 过渡时间：0.2s (快速), 0.3s (标准), 0.5s (慢速)</text>
  <text x="50" y="1790" class="text">• 缓动函数：ease-out (进入), ease-in (退出)</text>
  <text x="50" y="1810" class="text">• 加载动画：旋转或脉冲效果</text>
  
  <!-- 反馈机制 -->
  <text x="50" y="1850" class="subtitle">5.2 反馈机制</text>
  <text x="50" y="1870" class="text">• 悬停效果：颜色变化或轻微缩放</text>
  <text x="50" y="1890" class="text">• 点击反馈：按下效果和声音提示</text>
  <text x="50" y="1910" class="text">• 状态指示：清晰的视觉状态变化</text>
  
  <!-- 6. CSS代码示例 -->
  <text x="50" y="1970" class="section-title">6. CSS代码示例</text>
  
  <!-- 代码框 -->
  <rect x="50" y="1990" width="700" height="300" fill="#f8f9fa" stroke="#ddd" rx="4"/>
  
  <!-- CSS代码 -->
  <text x="60" y="2010" class="code">/* 主要样式变量 */</text>
  <text x="60" y="2025" class="code">:root {</text>
  <text x="80" y="2040" class="code">--primary-color: #1a1a2e;</text>
  <text x="80" y="2055" class="code">--secondary-color: #16213e;</text>
  <text x="80" y="2070" class="code">--accent-color: #e94560;</text>
  <text x="80" y="2085" class="code">--neutral-color: #0f3460;</text>
  <text x="80" y="2100" class="code">--text-primary: #ffffff;</text>
  <text x="80" y="2115" class="code">--text-secondary: #bdc3c7;</text>
  <text x="80" y="2130" class="code">--font-main: 'Microsoft YaHei', sans-serif;</text>
  <text x="80" y="2145" class="code">--border-radius: 8px;</text>
  <text x="80" y="2160" class="code">--transition: 0.3s ease;</text>
  <text x="60" y="2175" class="code">}</text>
  
  <text x="60" y="2200" class="code">/* 按钮样式 */</text>
  <text x="60" y="2215" class="code">.btn-primary {</text>
  <text x="80" y="2230" class="code">background: var(--accent-color);</text>
  <text x="80" y="2245" class="code">color: var(--text-primary);</text>
  <text x="80" y="2260" class="code">border: none;</text>
  <text x="80" y="2275" class="code">border-radius: var(--border-radius);</text>
  <text x="60" y="2290" class="code">}</text>
  
  <!-- 设计原则 -->
  <text x="800" y="2010" class="subtitle">设计原则：</text>
  <text x="800" y="2030" class="text">1. 一致性：统一的视觉语言</text>
  <text x="800" y="2050" class="text">2. 可用性：清晰的信息层级</text>
  <text x="800" y="2070" class="text">3. 可访问性：良好的对比度</text>
  <text x="800" y="2090" class="text">4. 响应式：多设备适配</text>
  <text x="800" y="2110" class="text">5. 性能：优化加载速度</text>
  
  <text x="800" y="2150" class="subtitle">品牌特色：</text>
  <text x="800" y="2170" class="text">• 悬疑氛围的深色主题</text>
  <text x="800" y="2190" class="text">• 像素艺术的复古风格</text>
  <text x="800" y="2210" class="text">• 简洁明了的交互设计</text>
  <text x="800" y="2230" class="text">• 沉浸式的游戏体验</text>
  
</svg>